<svg width="105" height="113" viewBox="0 0 105 113" fill="none" xmlns="http://www.w3.org/2000/svg">
<g opacity="0.2">
<g clip-path="url(#clip0_34_264)">
<path d="M52.4969 13.2393C50.7981 13.2393 49.4208 14.7216 49.4208 16.5499C49.4208 18.3782 50.7981 19.8604 52.4969 19.8604C62.6758 19.8604 70.9571 28.7711 70.9571 39.7237C70.9571 41.552 72.3344 43.0342 74.0332 43.0342C75.7321 43.0342 77.1094 41.552 77.1094 39.7237C77.1094 25.1202 66.0684 13.2393 52.4969 13.2393Z" fill="white"/>
<path d="M44.571 0.888961C30.6729 4.01434 19.4038 16.0259 16.4386 31.0758C13.9348 43.7844 17.0202 56.5432 24.9036 66.0809C28.7572 70.7428 30.9671 76.8967 30.9671 82.9817V89.6028C30.9671 94.008 33.6469 97.7505 37.3436 99.0467C38.5593 106.777 44.7937 112.997 52.5003 112.997C60.2049 112.997 66.4409 106.779 67.6571 99.0467C71.3538 97.7505 74.0336 94.008 74.0336 89.6026V82.9815C74.0336 76.8845 76.2509 70.8046 80.2765 65.8617C86.1693 58.6271 89.4144 49.3443 89.4144 39.7239C89.4144 14.6597 68.0967 -4.40041 44.571 0.888961ZM52.5003 106.376C48.546 106.376 45.079 103.448 43.7987 99.5124H61.2018C59.9217 103.448 56.4547 106.376 52.5003 106.376ZM67.8812 89.6028C67.8812 91.4282 66.5012 92.9133 64.805 92.9133H40.1957C38.4995 92.9133 37.1195 91.4282 37.1195 89.6028V86.2922H67.8812V89.6028ZM75.65 61.4978C71.3597 66.7653 68.7202 73.1171 68.0504 79.6711H36.9509C36.2819 73.1136 33.6492 66.6993 29.5008 61.6803C22.9305 53.7315 20.3632 43.077 22.4572 32.4493C24.9015 20.0427 34.2941 9.96427 45.8296 7.37035C65.522 2.9415 83.2621 18.8568 83.2621 39.7239C83.2621 47.738 80.5587 55.4708 75.65 61.4978Z" fill="white"/>
<path d="M9.22851 39.7237H3.07617C1.3773 39.7237 0 41.2059 0 43.0342C0 44.8625 1.3773 46.3448 3.07617 46.3448H9.22851C10.9274 46.3448 12.3047 44.8625 12.3047 43.0342C12.3047 41.2059 10.9274 39.7237 9.22851 39.7237Z" fill="white"/>
<path d="M10.5024 23.1717L6.15209 18.4899C4.95095 17.197 3.00311 17.197 1.80177 18.4899C0.60042 19.7828 0.60042 21.8788 1.80177 23.1717L6.15209 27.8535C7.35323 29.1464 9.30106 29.1466 10.5024 27.8535C11.7038 26.5606 11.7038 24.4646 10.5024 23.1717Z" fill="white"/>
<path d="M10.5024 58.2165C9.30106 56.9236 7.35323 56.9236 6.15209 58.2165L1.80177 62.8983C0.60042 64.1911 0.60042 66.2872 1.80177 67.58C3.00291 68.8729 4.95074 68.8731 6.15209 67.58L10.5024 62.8983C11.7038 61.6054 11.7038 59.5094 10.5024 58.2165Z" fill="white"/>
<path d="M101.924 39.7237H95.7716C94.0727 39.7237 92.6954 41.2059 92.6954 43.0342C92.6954 44.8625 94.0727 46.3448 95.7716 46.3448H101.924C103.623 46.3448 105 44.8625 105 43.0342C105 41.2059 103.623 39.7237 101.924 39.7237Z" fill="white"/>
<path d="M103.198 18.4899C101.997 17.197 100.049 17.197 98.8476 18.4899L94.4973 23.1717C93.296 24.4646 93.296 26.5606 94.4973 27.8535C95.6985 29.1461 97.6463 29.1464 98.8476 27.8535L103.198 23.1717C104.399 21.8788 104.399 19.7828 103.198 18.4899Z" fill="white"/>
<path d="M103.198 62.8983L98.8476 58.2165C97.6465 56.9236 95.6987 56.9236 94.4973 58.2165C93.296 59.5094 93.296 61.6054 94.4973 62.8983L98.8476 67.58C100.049 68.8727 101.997 68.8729 103.198 67.58C104.399 66.2872 104.399 64.1911 103.198 62.8983Z" fill="white"/>
</g>
</g>
<defs>
<clipPath id="clip0_34_264">
<rect width="105" height="113" rx="8" fill="white"/>
</clipPath>
</defs>
</svg>
